<svg xmlns="http://www.w3.org/2000/svg" version="1.1" viewBox="0 0 512 512" xmlns:xlink="http://www.w3.org/1999/xlink">
<g><path style="opacity:0.993" fill="#6893fd" d="M 372.5,196.5 C 339.035,154.842 296.035,139.675 243.5,151C 234.771,153.63 226.438,157.13 218.5,161.5C 209.248,146.666 200.248,131.666 191.5,116.5C 183.314,100.83 181.648,84.4962 186.5,67.5C 198.528,37.9746 220.528,25.1413 252.5,29C 268.812,32.3958 281.645,40.8958 291,54.5C 318.443,101.725 345.61,149.058 372.5,196.5 Z"/></g>
<g><path style="opacity:1" fill="#4744d8" d="M 186.5,67.5 C 181.648,84.4962 183.314,100.83 191.5,116.5C 157.432,185.302 123.432,253.969 89.5,322.5C 89.1667,322.5 88.8333,322.5 88.5,322.5C 83.1312,297.857 85.1312,273.857 94.5,250.5C 124.915,189.337 155.581,128.337 186.5,67.5 Z"/></g>
<g><path style="opacity:0.997" fill="#665afb" d="M 191.5,116.5 C 200.248,131.666 209.248,146.666 218.5,161.5C 228.56,180.617 238.893,199.617 249.5,218.5C 223.262,267.307 197.262,316.307 171.5,365.5C 164.312,377.21 157.645,389.21 151.5,401.5C 125.687,388.184 106.854,368.184 95,341.5C 92.2497,335.418 90.4164,329.084 89.5,322.5C 123.432,253.969 157.432,185.302 191.5,116.5 Z"/></g>
<g><path style="opacity:0.997" fill="#604af3" d="M 372.5,196.5 C 410.002,260.165 447.002,324.165 483.5,388.5C 474.328,378.178 462.995,371.345 449.5,368C 410.861,366.55 372.194,366.05 333.5,366.5C 305.5,317.167 277.5,267.833 249.5,218.5C 238.893,199.617 228.56,180.617 218.5,161.5C 226.438,157.13 234.771,153.63 243.5,151C 296.035,139.675 339.035,154.842 372.5,196.5 Z"/></g>
<g><path style="opacity:1" fill="#5588d8" d="M 94.5,250.5 C 85.1312,273.857 83.1312,297.857 88.5,322.5C 75.6799,348.14 62.8466,373.807 50,399.5C 38.9484,437.238 51.1151,464.238 86.5,480.5C 84.5,481.167 82.5,481.833 80.5,482.5C 52.5525,484.114 32.3858,472.448 20,447.5C 14.3976,431.968 14.0643,416.301 19,400.5C 43.9412,350.284 69.1078,300.284 94.5,250.5 Z"/></g>
<g><path style="opacity:1" fill="#7aa6fe" d="M 88.5,322.5 C 88.8333,322.5 89.1667,322.5 89.5,322.5C 90.4164,329.084 92.2497,335.418 95,341.5C 106.854,368.184 125.687,388.184 151.5,401.5C 141.361,422.448 130.195,442.781 118,462.5C 109.324,471.753 98.8236,477.753 86.5,480.5C 51.1151,464.238 38.9484,437.238 50,399.5C 62.8466,373.807 75.6799,348.14 88.5,322.5 Z"/></g>
<g><path style="opacity:0.999" fill="#604af3" d="M 171.5,365.5 C 206.996,366.498 242.663,366.832 278.5,366.5C 325.219,372.724 358.053,397.39 377,440.5C 382.398,453.989 384.898,467.989 384.5,482.5C 283.167,482.5 181.833,482.5 80.5,482.5C 82.5,481.833 84.5,481.167 86.5,480.5C 98.8236,477.753 109.324,471.753 118,462.5C 130.195,442.781 141.361,422.448 151.5,401.5C 157.645,389.21 164.312,377.21 171.5,365.5 Z"/></g>
<g><path style="opacity:0.997" fill="#6893fd" d="M 278.5,366.5 C 296.833,366.5 315.167,366.5 333.5,366.5C 372.194,366.05 410.861,366.55 449.5,368C 462.995,371.345 474.328,378.178 483.5,388.5C 494.045,402.351 497.879,418.018 495,435.5C 488.833,460.333 473.333,475.833 448.5,482C 427.169,482.5 405.836,482.667 384.5,482.5C 384.898,467.989 382.398,453.989 377,440.5C 358.053,397.39 325.219,372.724 278.5,366.5 Z"/></g>
</svg>
